# Blender v2.56 (sub 0) OBJ File: 'gridHills.blend'
# www.blender.org
v 1.000000 -1.000000 0.000000
v 0.777778 -1.000000 0.105693
v 0.555556 -1.000000 0.000000
v 0.333333 -1.000000 0.000000
v 0.111111 -1.000000 0.105693
v -0.111111 -1.000000 0.105693
v -0.333333 -1.000000 0.105693
v -0.555556 -1.000000 0.105693
v -0.777778 -1.000000 0.105693
v -1.000000 -1.000000 0.000000
v -1.000000 -0.777778 0.000000
v -0.777778 -0.777778 0.000000
v -0.555556 -0.777778 0.000000
v -0.333333 -0.777778 0.105693
v -0.111111 -0.777778 0.105693
v 0.111111 -0.777778 0.105693
v 0.333333 -0.777778 0.105693
v 0.555556 -0.777778 0.105693
v 0.777778 -0.777778 0.105693
v 1.000000 -0.777778 0.105693
v 1.000000 -0.555556 0.105693
v 0.777778 -0.555556 0.105693
v 0.555556 -0.555556 0.000000
v 0.333333 -0.555556 0.105693
v 0.111111 -0.555556 0.000000
v -0.111111 -0.555556 0.105693
v -0.333333 -0.555556 0.000000
v -0.555556 -0.555556 0.000000
v -0.777778 -0.555556 0.000000
v -1.000000 -0.555556 0.000000
v -1.000000 -0.333333 0.000000
v -0.777778 -0.333333 0.000000
v -0.555556 -0.333333 0.000000
v -0.333333 -0.333333 0.105693
v -0.111111 -0.333333 0.000000
v 0.111111 -0.333333 0.105693
v 0.333333 -0.333333 0.105693
v 0.555556 -0.333333 0.105693
v 0.777778 -0.333333 0.000000
v 1.000000 -0.333333 0.000000
v 1.000000 -0.111111 0.000000
v 0.777778 -0.111111 0.000000
v 0.555556 -0.111111 0.105693
v 0.333333 -0.111111 0.000000
v 0.111111 -0.111111 0.000000
v -0.111111 -0.111111 0.105693
v -0.333333 -0.111111 0.105693
v -0.555556 -0.111111 0.000000
v -0.777778 -0.111111 0.000000
v -1.000000 -0.111111 0.000000
v -1.000000 0.111111 0.105693
v -0.777778 0.111111 0.105693
v -0.555556 0.111111 0.105693
v -0.333333 0.111111 0.105693
v -0.111111 0.111111 0.000000
v 0.111111 0.111111 0.000000
v 0.333333 0.111111 0.105693
v 0.555556 0.111111 0.000000
v 0.777778 0.111111 0.000000
v 1.000000 0.111111 0.000000
v 1.000000 0.333333 0.000000
v 0.777778 0.333333 0.105693
v 0.555556 0.333333 0.000000
v 0.333333 0.333333 0.105693
v 0.111111 0.333333 0.000000
v -0.111111 0.333333 0.000000
v -0.333333 0.333333 0.000000
v -0.555556 0.333333 0.000000
v -0.777778 0.333333 0.000000
v -1.000000 0.333333 0.000000
v -1.000000 0.555556 0.105693
v -0.777778 0.555556 0.105693
v -0.555556 0.555556 0.000000
v -0.333333 0.555556 0.000000
v -0.111111 0.555556 0.000000
v 0.111111 0.555556 0.000000
v 0.333333 0.555556 0.105693
v 0.555556 0.555556 0.105693
v 0.777778 0.555556 0.105693
v 1.000000 0.555556 0.000000
v 1.000000 0.777778 0.000000
v 0.777778 0.777778 0.000000
v 0.555556 0.777778 0.000000
v 0.333333 0.777778 0.105693
v 0.111111 0.777778 0.000000
v -0.111111 0.777778 0.105693
v -0.333333 0.777778 0.000000
v -0.555556 0.777778 0.105693
v -0.777778 0.777778 0.105693
v -1.000000 0.777778 0.105693
v -1.000000 1.000000 0.000000
v -0.777778 1.000000 0.105693
v -0.555556 1.000000 0.105693
v -0.333333 1.000000 0.000000
v -0.111111 1.000000 0.105693
v 0.111111 1.000000 0.105693
v 0.333333 1.000000 0.105693
v 0.555556 1.000000 0.000000
v 0.777778 1.000000 0.000000
v 1.000000 1.000000 0.000000
vt 0.000000 0.000000
vt 0.111111 0.000000
vt 0.111111 0.111111
vt 0.000000 0.111111
vt 0.222222 0.000000
vt 0.222222 0.111111
vt 0.333333 0.000000
vt 0.333333 0.111111
vt 0.444444 0.000000
vt 0.444444 0.111111
vt 0.555556 0.000000
vt 0.555556 0.111111
vt 0.666667 0.000000
vt 0.666667 0.111111
vt 0.777778 0.000000
vt 0.777778 0.111111
vt 0.888889 0.000000
vt 0.888889 0.111111
vt 1.000000 0.000000
vt 1.000000 0.111111
vt 1.000000 0.222222
vt 0.888889 0.222222
vt 0.777778 0.222222
vt 0.666667 0.222222
vt 0.555556 0.222222
vt 0.444444 0.222222
vt 0.333333 0.222222
vt 0.222222 0.222222
vt 0.111111 0.222222
vt 0.000000 0.222222
vt 0.111111 0.333333
vt 0.000000 0.333333
vt 0.222222 0.333333
vt 0.333333 0.333333
vt 0.444444 0.333333
vt 0.555556 0.333333
vt 0.666667 0.333333
vt 0.777778 0.333333
vt 0.888889 0.333333
vt 1.000000 0.333333
vt 1.000000 0.444444
vt 0.888889 0.444444
vt 0.777778 0.444444
vt 0.666667 0.444444
vt 0.555556 0.444444
vt 0.444444 0.444444
vt 0.333333 0.444444
vt 0.222222 0.444444
vt 0.111111 0.444444
vt 0.000000 0.444444
vt 0.111111 0.555556
vt 0.000000 0.555556
vt 0.222222 0.555556
vt 0.333333 0.555556
vt 0.444444 0.555556
vt 0.555556 0.555556
vt 0.666667 0.555556
vt 0.777778 0.555556
vt 0.888889 0.555556
vt 1.000000 0.555556
vt 1.000000 0.666667
vt 0.888889 0.666667
vt 0.777778 0.666667
vt 0.666667 0.666667
vt 0.555556 0.666667
vt 0.444444 0.666667
vt 0.333333 0.666667
vt 0.222222 0.666667
vt 0.111111 0.666667
vt 0.000000 0.666667
vt 0.111111 0.777778
vt 0.000000 0.777778
vt 0.222222 0.777778
vt 0.333333 0.777778
vt 0.444444 0.777778
vt 0.555556 0.777778
vt 0.666667 0.777778
vt 0.777778 0.777778
vt 0.888889 0.777778
vt 1.000000 0.777778
vt 1.000000 0.888889
vt 0.888889 0.888889
vt 0.777778 0.888889
vt 0.666667 0.888889
vt 0.555556 0.888889
vt 0.444444 0.888889
vt 0.333333 0.888889
vt 0.222222 0.888889
vt 0.111111 0.888889
vt 0.000000 0.888889
vt 0.111111 1.000000
vt 0.000000 1.000000
vt 0.222222 1.000000
vt 0.333333 1.000000
vt 0.444444 1.000000
vt 0.555556 1.000000
vt 0.666667 1.000000
vt 0.777778 1.000000
vt 0.888889 1.000000
vt 1.000000 1.000000
vn -0.225403 0.225403 0.947833
vn 0.000000 0.429513 0.903061
vn 0.000000 0.000000 1.000000
vn 0.225403 -0.225403 0.947833
vn 0.000000 -0.429513 0.903061
vn -0.225403 -0.225403 0.947833
vn 0.225403 0.225403 0.947833
vn 0.429513 0.000000 0.903061
vn -0.429512 0.000000 0.903061
vn -0.429513 0.000000 0.903061
usemtl None_greenchecker
s off
f 10/1/1 9/2/1 12/3/1
f 10/1/1 12/3/1 11/4/1
f 9/2/2 8/5/2 13/6/2
f 9/2/2 13/6/2 12/3/2
f 8/5/1 7/7/1 14/8/1
f 8/5/1 14/8/1 13/6/1
f 7/7/3 6/9/3 15/10/3
f 7/7/3 15/10/3 14/8/3
f 6/9/3 5/11/3 16/12/3
f 6/9/3 16/12/3 15/10/3
f 5/11/4 4/13/4 17/14/4
f 5/11/4 17/14/4 16/12/4
f 4/13/5 3/15/5 18/16/5
f 4/13/5 18/16/5 17/14/5
f 3/15/6 2/17/6 19/18/6
f 3/15/6 19/18/6 18/16/6
f 2/17/4 1/19/4 20/20/4
f 2/17/4 20/20/4 19/18/4
f 19/18/3 20/20/3 21/21/3
f 19/18/3 21/21/3 22/22/3
f 18/16/1 19/18/1 22/22/1
f 18/16/1 22/22/1 23/23/1
f 17/14/7 18/16/7 23/23/7
f 17/14/7 23/23/7 24/24/7
f 16/12/1 17/14/1 24/24/1
f 16/12/1 24/24/1 25/25/1
f 15/10/7 16/12/7 25/25/7
f 15/10/7 25/25/7 26/26/7
f 14/8/1 15/10/1 26/26/1
f 14/8/1 26/26/1 27/27/1
f 13/6/1 14/8/1 27/27/1
f 13/6/1 27/27/1 28/28/1
f 12/3/3 13/6/3 28/28/3
f 12/3/3 28/28/3 29/29/3
f 11/4/3 12/3/3 29/29/3
f 11/4/3 29/29/3 30/30/3
f 30/30/3 29/29/3 32/31/3
f 30/30/3 32/31/3 31/32/3
f 29/29/3 28/28/3 33/33/3
f 29/29/3 33/33/3 32/31/3
f 28/28/6 27/27/6 34/34/6
f 28/28/6 34/34/6 33/33/6
f 27/27/3 26/26/3 35/35/3
f 27/27/3 35/35/3 34/34/3
f 26/26/3 25/25/3 36/36/3
f 26/26/3 36/36/3 35/35/3
f 25/25/6 24/24/6 37/37/6
f 25/25/6 37/37/6 36/36/6
f 24/24/4 23/23/4 38/38/4
f 24/24/4 38/38/4 37/37/4
f 23/23/3 22/22/3 39/39/3
f 23/23/3 39/39/3 38/38/3
f 22/22/2 21/21/2 40/40/2
f 22/22/2 40/40/2 39/39/2
f 39/39/3 40/40/3 41/41/3
f 39/39/3 41/41/3 42/42/3
f 38/38/8 39/39/8 42/42/8
f 38/38/8 42/42/8 43/43/8
f 37/37/1 38/38/1 43/43/1
f 37/37/1 43/43/1 44/44/1
f 36/36/2 37/37/2 44/44/2
f 36/36/2 44/44/2 45/45/2
f 35/35/3 36/36/3 45/45/3
f 35/35/3 45/45/3 46/46/3
f 34/34/4 35/35/4 46/46/4
f 34/34/4 46/46/4 47/47/4
f 33/33/9 34/34/9 47/47/9
f 33/33/9 47/47/9 48/48/9
f 32/31/3 33/33/3 48/48/3
f 32/31/3 48/48/3 49/49/3
f 31/32/3 32/31/3 49/49/3
f 31/32/3 49/49/3 50/50/3
f 50/50/5 49/49/5 52/51/5
f 50/50/5 52/51/5 51/52/5
f 49/49/5 48/48/5 53/53/5
f 49/49/5 53/53/5 52/51/5
f 48/48/6 47/47/6 54/54/6
f 48/48/6 54/54/6 53/53/6
f 47/47/7 46/46/7 55/55/7
f 47/47/7 55/55/7 54/54/7
f 46/46/7 45/45/7 56/56/7
f 46/46/7 56/56/7 55/55/7
f 45/45/6 44/44/6 57/57/6
f 45/45/6 57/57/6 56/56/6
f 44/44/3 43/43/3 58/58/3
f 44/44/3 58/58/3 57/57/3
f 43/43/7 42/42/7 59/59/7
f 43/43/7 59/59/7 58/58/7
f 42/42/3 41/41/3 60/60/3
f 42/42/3 60/60/3 59/59/3
f 59/59/4 60/60/4 61/61/4
f 59/59/4 61/61/4 62/62/4
f 58/58/6 59/59/6 62/62/6
f 58/58/6 62/62/6 63/63/6
f 57/57/8 58/58/8 63/63/8
f 57/57/8 63/63/8 64/64/8
f 56/56/10 57/57/10 64/64/10
f 56/56/10 64/64/10 65/65/10
f 55/55/3 56/56/3 65/65/3
f 55/55/3 65/65/3 66/66/3
f 54/54/7 55/55/7 66/66/7
f 54/54/7 66/66/7 67/67/7
f 53/53/2 54/54/2 67/67/2
f 53/53/2 67/67/2 68/68/2
f 52/51/2 53/53/2 68/68/2
f 52/51/2 68/68/2 69/69/2
f 51/52/2 52/51/2 69/69/2
f 51/52/2 69/69/2 70/70/2
f 70/70/5 69/69/5 72/71/5
f 70/70/5 72/71/5 71/72/5
f 69/69/4 68/68/4 73/73/4
f 69/69/4 73/73/4 72/71/4
f 68/68/3 67/67/3 74/74/3
f 68/68/3 74/74/3 73/73/3
f 67/67/3 66/66/3 75/75/3
f 67/67/3 75/75/3 74/74/3
f 66/66/3 65/65/3 76/76/3
f 66/66/3 76/76/3 75/75/3
f 65/65/10 64/64/10 77/77/10
f 65/65/10 77/77/10 76/76/10
f 64/64/4 63/63/4 78/78/4
f 64/64/4 78/78/4 77/77/4
f 63/63/6 62/62/6 79/79/6
f 63/63/6 79/79/6 78/78/6
f 62/62/8 61/61/8 80/80/8
f 62/62/8 80/80/8 79/79/8
f 79/79/7 80/80/7 81/81/7
f 79/79/7 81/81/7 82/82/7
f 78/78/2 79/79/2 82/82/2
f 78/78/2 82/82/2 83/83/2
f 77/77/7 78/78/7 83/83/7
f 77/77/7 83/83/7 84/84/7
f 76/76/10 77/77/10 84/84/10
f 76/76/10 84/84/10 85/85/10
f 75/75/4 76/76/4 85/85/4
f 75/75/4 85/85/4 86/86/4
f 74/74/6 75/75/6 86/86/6
f 74/74/6 86/86/6 87/87/6
f 73/73/4 74/74/4 87/87/4
f 73/73/4 87/87/4 88/88/4
f 72/71/4 73/73/4 88/88/4
f 72/71/4 88/88/4 89/89/4
f 71/72/3 72/71/3 89/89/3
f 71/72/3 89/89/3 90/90/3
f 90/90/1 89/89/1 92/91/1
f 90/90/1 92/91/1 91/92/1
f 89/89/3 88/88/3 93/93/3
f 89/89/3 93/93/3 92/91/3
f 88/88/8 87/87/8 94/94/8
f 88/88/8 94/94/8 93/93/8
f 87/87/10 86/86/10 95/95/10
f 87/87/10 95/95/10 94/94/10
f 86/86/4 85/85/4 96/96/4
f 86/86/4 96/96/4 95/95/4
f 85/85/6 84/84/6 97/97/6
f 85/85/6 97/97/6 96/96/6
f 84/84/8 83/83/8 98/98/8
f 84/84/8 98/98/8 97/97/8
f 83/83/3 82/82/3 99/99/3
f 83/83/3 99/99/3 98/98/3
f 82/82/3 81/81/3 100/100/3
f 82/82/3 100/100/3 99/99/3
