# Blender v2.56 (sub 0) OBJ File: ''
# www.blender.org
o Sphere
v 1.000000 0.000000 -0.000000
v -0.000000 0.000000 -1.000000
v -0.500000 0.866025 0.000000
v 0.000000 0.000000 1.000000
v -0.500000 -0.866026 0.000000
vt 0.000000 0.000000
vt 0.000000 1.000000
vt 1.000000 1.000000
vt 1.000000 0.000000
vn 0.447214 0.774597 -0.447214
vn 0.447214 0.774597 0.447214
vn -0.894427 -0.000000 0.447214
vn -0.894427 -0.000000 -0.447214
vn 0.447214 -0.774596 -0.447214
vn 0.447214 -0.774597 0.447214
usemtl None_checker.png
s off
f 3/1/1 1/2/1 2/3/1
f 1/1/2 3/4/2 4/3/2
f 3/1/3 5/4/3 4/3/3
f 2/1/4 5/4/4 3/3/4
f 2/1/5 1/2/5 5/3/5
f 5/1/6 1/2/6 4/3/6
