# Blender v2.56 (sub 0) OBJ File: 'missile.blend'
# www.blender.org
v -0.500000 0.100000 -0.000000
v -0.500000 0.098079 -0.019509
v -0.500000 0.092388 -0.038268
v -0.500000 0.083147 -0.055557
v -0.500000 0.070711 -0.070711
v -0.500000 0.055557 -0.083147
v -0.500000 0.038268 -0.092388
v -0.500000 0.019509 -0.098079
v -0.500000 0.000000 -0.100000
v -0.500000 -0.019509 -0.098079
v -0.500000 -0.038268 -0.092388
v -0.500000 -0.055557 -0.083147
v -0.500000 -0.070711 -0.070711
v -0.500000 -0.083147 -0.055557
v -0.500000 -0.092388 -0.038268
v -0.500000 -0.098079 -0.019509
v -0.500000 -0.100000 -0.000000
v -0.500000 -0.098079 0.019509
v -0.500000 -0.092388 0.038268
v -0.500000 -0.083147 0.055557
v -0.500000 -0.070711 0.070711
v -0.500000 -0.055557 0.083147
v -0.500000 -0.038268 0.092388
v -0.500000 -0.019509 0.098079
v -0.500000 0.000000 0.100000
v -0.500000 0.019509 0.098078
v -0.500000 0.038268 0.092388
v -0.500000 0.055557 0.083147
v -0.500000 0.070711 0.070711
v -0.500000 0.083147 0.055557
v -0.500000 0.092388 0.038268
v -0.500000 0.098079 0.019509
v 0.500000 0.000000 0.000000
v -0.500000 0.000000 -0.000000
vn 0.099029 0.990293 -0.097535
vn 0.099029 0.952236 -0.288858
vn 0.099029 0.877586 -0.469080
vn 0.099029 0.769211 -0.631275
vn 0.099029 0.631275 -0.769211
vn 0.099029 0.469079 -0.877586
vn 0.099029 0.288858 -0.952236
vn 0.099029 0.097536 -0.990293
vn 0.099029 -0.097535 -0.990293
vn 0.099029 -0.288858 -0.952236
vn 0.099029 -0.469079 -0.877586
vn 0.099029 -0.631275 -0.769211
vn 0.099029 -0.769211 -0.631275
vn 0.099029 -0.877586 -0.469080
vn 0.099029 -0.952237 -0.288857
vn 0.099029 -0.990293 -0.097535
vn 0.099029 -0.990293 0.097536
vn 0.099029 -0.952236 0.288858
vn 0.099029 -0.877586 0.469080
vn 0.099029 -0.769211 0.631275
vn 0.099029 -0.631274 0.769211
vn 0.099029 -0.469079 0.877587
vn 0.099029 -0.288857 0.952237
vn 0.099029 -0.097535 0.990293
vn 0.099029 0.097536 0.990293
vn 0.099029 0.288859 0.952236
vn 0.099029 0.469080 0.877586
vn 0.099029 0.631276 0.769210
vn 0.099029 0.769211 0.631274
vn 0.099029 0.877587 0.469078
vn 0.099029 0.952237 0.288856
vn 0.099029 0.990293 0.097535
vn -1.000000 0.000000 0.000000
usemtl (null)
s off
f 2//1 1//1 33//1
f 33//2 3//2 2//2
f 33//3 4//3 3//3
f 33//4 5//4 4//4
f 33//5 6//5 5//5
f 33//6 7//6 6//6
f 33//7 8//7 7//7
f 33//8 9//8 8//8
f 33//9 10//9 9//9
f 33//10 11//10 10//10
f 33//11 12//11 11//11
f 33//12 13//12 12//12
f 33//13 14//13 13//13
f 33//14 15//14 14//14
f 33//15 16//15 15//15
f 33//16 17//16 16//16
f 33//17 18//17 17//17
f 33//18 19//18 18//18
f 33//19 20//19 19//19
f 33//20 21//20 20//20
f 33//21 22//21 21//21
f 33//22 23//22 22//22
f 33//23 24//23 23//23
f 33//24 25//24 24//24
f 33//25 26//25 25//25
f 33//26 27//26 26//26
f 33//27 28//27 27//27
f 33//28 29//28 28//28
f 33//29 30//29 29//29
f 33//30 31//30 30//30
f 33//31 32//31 31//31
f 33//32 1//32 32//32
f 34//33 1//33 2//33
f 34//33 2//33 3//33
f 34//33 3//33 4//33
f 34//33 4//33 5//33
f 34//33 5//33 6//33
f 34//33 6//33 7//33
f 34//33 7//33 8//33
f 34//33 8//33 9//33
f 34//33 9//33 10//33
f 34//33 10//33 11//33
f 34//33 11//33 12//33
f 34//33 12//33 13//33
f 34//33 13//33 14//33
f 34//33 14//33 15//33
f 34//33 15//33 16//33
f 34//33 16//33 17//33
f 34//33 17//33 18//33
f 34//33 18//33 19//33
f 34//33 19//33 20//33
f 34//33 20//33 21//33
f 34//33 21//33 22//33
f 34//33 22//33 23//33
f 34//33 23//33 24//33
f 34//33 24//33 25//33
f 34//33 25//33 26//33
f 34//33 26//33 27//33
f 34//33 27//33 28//33
f 34//33 28//33 29//33
f 34//33 29//33 30//33
f 34//33 30//33 31//33
f 34//33 31//33 32//33
f 32//33 1//33 34//33
