# Blender v2.56 (sub 0) OBJ File: 'xyzplane.blend'
# www.blender.org
o Cube
v 0.500000 -0.500000 -1.500000
v 0.500000 -0.500000 0.500000
v 0.500000 0.500000 0.500000
v 0.500000 0.500000 -1.500000
v 1.000000 -0.500001 -1.500000
v 1.000000 -0.499999 0.500001
v 1.000000 0.500000 0.500000
v 1.000000 0.500000 -1.500000
v 0.750000 -5.500000 0.300002
v 0.750000 -5.500000 -0.299998
v 0.749999 5.500000 0.299998
v 0.749999 5.500000 -0.300001
v 0.500001 -0.000001 -3.500000
v 1.000000 -0.499998 3.500000
v 1.000000 0.500002 3.500000
v 0.000000 0.000000 0.500000
v -0.000000 -0.000000 -1.500000
vt 0.237157 0.469429
vt 0.240886 0.348598
vt 0.672999 0.469428
vt 0.346341 0.553191
vt 0.349212 0.648855
vt 0.681909 0.553191
vt 0.339089 0.648267
vt 0.339089 0.553909
vt 0.656186 0.588975
vt 0.418668 0.388672
vt 0.418668 0.461974
vt 0.262614 0.433987
vt 0.484244 0.287712
vt 0.484244 0.209369
vt 0.645751 0.248540
vt 0.168032 0.553909
vt 0.165747 0.579042
vt 0.304330 0.456114
vt 0.304329 0.382812
vt 0.744141 0.456114
vt 0.444033 0.396404
vt 0.436078 0.484508
vt 0.149717 0.396405
vt 0.396458 0.080584
vt 0.515249 0.154869
vt 0.392604 0.150676
vt 0.392603 0.010492
vt 0.515248 0.006296
vt 0.206865 0.134371
vt 0.206864 0.026800
vt 0.511899 0.080583
vt 0.640792 0.080582
vt 0.327558 0.209369
vt 0.327558 0.287712
vt 0.092530 0.287712
vt 0.092530 0.209369
vt 0.517434 0.683490
vt 0.517434 0.825386
vt 0.162253 0.768627
vt 0.162253 0.815614
vt 0.499957 0.673786
vt 0.499957 0.959923
vt 0.289193 0.788238
vt 0.289105 0.693537
vt 0.296537 0.993840
vt 0.296537 0.870338
vt 0.605677 0.944439
vt 0.605807 0.985314
vt 0.338724 0.832835
vt 0.338724 0.992447
vt 0.512838 0.928602
vt 0.512838 0.981455
vn -0.000001 -0.039968 0.999201
vn 0.000001 -0.233373 -0.972387
vn 0.000000 0.233373 -0.972387
vn 0.000000 0.039968 0.999201
vn 0.970143 -0.000000 -0.242535
vn -0.000000 0.970142 -0.242536
vn -0.000001 -0.970143 -0.242535
vn -0.000000 1.000000 -0.000001
vn 0.000001 -1.000000 0.000001
vn -0.707107 -0.707107 0.000000
vn -0.707107 0.707107 -0.000000
vn -0.948683 0.000000 0.316228
vn -0.702247 0.702247 0.117041
vn -0.702247 -0.702247 0.117042
vn -0.696311 -0.696311 -0.174078
vn -0.696310 0.696311 -0.174078
vn 1.000000 -0.000000 0.000000
vn -0.998752 0.049937 0.000000
vn 0.998752 0.049938 -0.000000
vn -0.998752 -0.049938 0.000000
vn 0.998752 -0.049938 -0.000000
usemtl Material_xyz.bmp
s off
f 6/1/1 2/2/1 9/3/1
f 1/4/2 5/5/2 10/6/2
f 8/7/3 4/8/3 12/9/3
f 3/10/4 7/11/4 11/12/4
f 8/13/5 5/14/5 13/15/5
f 4/8/6 8/7/6 13/16/6
f 5/5/7 1/4/7 13/17/7
f 7/18/8 3/19/8 15/20/8
f 2/21/9 6/22/9 14/23/9
f 16/24/10 1/25/10 2/26/10
f 16/24/11 3/27/11 4/28/11
f 16/24/12 14/29/12 15/30/12
f 3/27/13 16/24/13 15/30/13
f 16/24/14 2/26/14 14/29/14
f 1/25/15 17/31/15 13/32/15
f 17/31/16 4/28/16 13/32/16
f 4/28/11 17/31/11 16/24/11
f 17/31/10 1/25/10 16/24/10
f 6/33/17 7/34/17 15/35/17
f 6/33/17 15/35/17 14/36/17
f 4/37/18 3/38/18 12/39/18
f 3/38/18 11/40/18 12/39/18
f 7/41/19 8/42/19 12/43/19
f 7/41/19 12/43/19 11/44/19
f 2/45/20 1/46/20 10/47/20
f 2/45/20 10/47/20 9/48/20
f 5/49/21 6/50/21 10/51/21
f 6/50/21 9/52/21 10/51/21
f 5/14/17 8/13/17 7/34/17
f 5/14/17 7/34/17 6/33/17
